<mxfile host="app.diagrams.net" modified="2024-07-25T09:56:58.114Z" agent="Mozilla/5.0 (Windows NT 10.0; Win64; x64) AppleWebKit/537.36 (KHTML, like Gecko) Chrome/126.0.0.0 Safari/537.36" etag="edwT-ktFShKf9XwdU-to" version="24.3.1" type="device">
  <diagram name="Page-1" id="v-z9qohpI96FeUnAWfDl">
    <mxGraphModel dx="3493" dy="1197" grid="1" gridSize="10" guides="1" tooltips="1" connect="1" arrows="1" fold="1" page="1" pageScale="1" pageWidth="850" pageHeight="1100" math="0" shadow="0">
      <root>
        <mxCell id="0" />
        <mxCell id="1" parent="0" />
        <mxCell id="hlvBznPP3QciB6lrWHOo-11" value="" style="edgeStyle=orthogonalEdgeStyle;rounded=0;orthogonalLoop=1;jettySize=auto;html=1;" edge="1" parent="1" source="hlvBznPP3QciB6lrWHOo-4" target="hlvBznPP3QciB6lrWHOo-10">
          <mxGeometry relative="1" as="geometry" />
        </mxCell>
        <mxCell id="hlvBznPP3QciB6lrWHOo-4" value="start" style="ellipse;whiteSpace=wrap;html=1;" vertex="1" parent="1">
          <mxGeometry x="176.25" y="90" width="110" height="60" as="geometry" />
        </mxCell>
        <mxCell id="hlvBznPP3QciB6lrWHOo-13" value="" style="edgeStyle=orthogonalEdgeStyle;rounded=0;orthogonalLoop=1;jettySize=auto;html=1;" edge="1" parent="1" source="hlvBznPP3QciB6lrWHOo-10" target="hlvBznPP3QciB6lrWHOo-12">
          <mxGeometry relative="1" as="geometry" />
        </mxCell>
        <mxCell id="hlvBznPP3QciB6lrWHOo-10" value="Login" style="whiteSpace=wrap;html=1;" vertex="1" parent="1">
          <mxGeometry x="171.25" y="220" width="120" height="60" as="geometry" />
        </mxCell>
        <mxCell id="hlvBznPP3QciB6lrWHOo-15" value="" style="edgeStyle=orthogonalEdgeStyle;rounded=0;orthogonalLoop=1;jettySize=auto;html=1;" edge="1" parent="1" source="hlvBznPP3QciB6lrWHOo-12" target="hlvBznPP3QciB6lrWHOo-14">
          <mxGeometry relative="1" as="geometry" />
        </mxCell>
        <mxCell id="hlvBznPP3QciB6lrWHOo-26" value="belum" style="edgeLabel;html=1;align=center;verticalAlign=middle;resizable=0;points=[];" vertex="1" connectable="0" parent="hlvBznPP3QciB6lrWHOo-15">
          <mxGeometry x="-0.5238" y="2" relative="1" as="geometry">
            <mxPoint x="10" y="2" as="offset" />
          </mxGeometry>
        </mxCell>
        <mxCell id="hlvBznPP3QciB6lrWHOo-23" value="sudah" style="edgeStyle=orthogonalEdgeStyle;rounded=0;orthogonalLoop=1;jettySize=auto;html=1;" edge="1" parent="1" source="hlvBznPP3QciB6lrWHOo-12">
          <mxGeometry x="0.0095" relative="1" as="geometry">
            <mxPoint x="231.29999999999995" y="520" as="targetPoint" />
            <mxPoint as="offset" />
          </mxGeometry>
        </mxCell>
        <mxCell id="hlvBznPP3QciB6lrWHOo-12" value="Sudah punya akun?" style="rhombus;whiteSpace=wrap;html=1;" vertex="1" parent="1">
          <mxGeometry x="180" y="330" width="102.5" height="90" as="geometry" />
        </mxCell>
        <mxCell id="hlvBznPP3QciB6lrWHOo-176" style="edgeStyle=orthogonalEdgeStyle;rounded=0;orthogonalLoop=1;jettySize=auto;html=1;entryX=0.5;entryY=1;entryDx=0;entryDy=0;" edge="1" parent="1" source="hlvBznPP3QciB6lrWHOo-14" target="hlvBznPP3QciB6lrWHOo-31">
          <mxGeometry relative="1" as="geometry" />
        </mxCell>
        <mxCell id="hlvBznPP3QciB6lrWHOo-14" value="Register akun" style="whiteSpace=wrap;html=1;" vertex="1" parent="1">
          <mxGeometry x="360" y="345" width="120" height="60" as="geometry" />
        </mxCell>
        <mxCell id="hlvBznPP3QciB6lrWHOo-21" style="edgeStyle=orthogonalEdgeStyle;rounded=0;orthogonalLoop=1;jettySize=auto;html=1;entryX=1;entryY=0.5;entryDx=0;entryDy=0;" edge="1" parent="1" source="hlvBznPP3QciB6lrWHOo-18" target="hlvBznPP3QciB6lrWHOo-10">
          <mxGeometry relative="1" as="geometry">
            <mxPoint x="300" y="250" as="targetPoint" />
          </mxGeometry>
        </mxCell>
        <mxCell id="hlvBznPP3QciB6lrWHOo-18" value="submit dan akan terarahkan kembali ke form login" style="whiteSpace=wrap;html=1;" vertex="1" parent="1">
          <mxGeometry x="360" y="220" width="120" height="60" as="geometry" />
        </mxCell>
        <mxCell id="hlvBznPP3QciB6lrWHOo-28" value="" style="edgeStyle=orthogonalEdgeStyle;rounded=0;orthogonalLoop=1;jettySize=auto;html=1;" edge="1" parent="1" target="hlvBznPP3QciB6lrWHOo-27">
          <mxGeometry relative="1" as="geometry">
            <mxPoint x="231.25" y="580" as="sourcePoint" />
          </mxGeometry>
        </mxCell>
        <mxCell id="hlvBznPP3QciB6lrWHOo-33" value="" style="edgeStyle=orthogonalEdgeStyle;rounded=0;orthogonalLoop=1;jettySize=auto;html=1;" edge="1" parent="1" source="hlvBznPP3QciB6lrWHOo-27" target="hlvBznPP3QciB6lrWHOo-32">
          <mxGeometry relative="1" as="geometry" />
        </mxCell>
        <mxCell id="hlvBznPP3QciB6lrWHOo-27" value="masuk ke tampilan utama aplikasi&amp;nbsp;" style="whiteSpace=wrap;html=1;" vertex="1" parent="1">
          <mxGeometry x="171.25" y="650" width="120" height="60" as="geometry" />
        </mxCell>
        <mxCell id="hlvBznPP3QciB6lrWHOo-29" value="input username dan password&amp;nbsp;" style="shape=parallelogram;perimeter=parallelogramPerimeter;whiteSpace=wrap;html=1;fixedSize=1;" vertex="1" parent="1">
          <mxGeometry x="157.18" y="520" width="148.13" height="80" as="geometry" />
        </mxCell>
        <mxCell id="hlvBznPP3QciB6lrWHOo-211" style="edgeStyle=orthogonalEdgeStyle;rounded=0;orthogonalLoop=1;jettySize=auto;html=1;entryX=1;entryY=0.25;entryDx=0;entryDy=0;" edge="1" parent="1" source="hlvBznPP3QciB6lrWHOo-31" target="hlvBznPP3QciB6lrWHOo-18">
          <mxGeometry relative="1" as="geometry">
            <Array as="points">
              <mxPoint x="590" y="235" />
            </Array>
          </mxGeometry>
        </mxCell>
        <mxCell id="hlvBznPP3QciB6lrWHOo-31" value="input email&lt;div&gt;username&lt;/div&gt;&lt;div&gt;password&amp;nbsp;&lt;br&gt;first name dan lastname&amp;nbsp;&lt;/div&gt;" style="shape=parallelogram;perimeter=parallelogramPerimeter;whiteSpace=wrap;html=1;fixedSize=1;" vertex="1" parent="1">
          <mxGeometry x="510" y="280" width="170" height="60" as="geometry" />
        </mxCell>
        <mxCell id="hlvBznPP3QciB6lrWHOo-35" value="" style="edgeStyle=orthogonalEdgeStyle;rounded=0;orthogonalLoop=1;jettySize=auto;html=1;" edge="1" parent="1" source="hlvBznPP3QciB6lrWHOo-32" target="hlvBznPP3QciB6lrWHOo-34">
          <mxGeometry relative="1" as="geometry" />
        </mxCell>
        <mxCell id="hlvBznPP3QciB6lrWHOo-36" value="barang masuk" style="edgeLabel;html=1;align=center;verticalAlign=middle;resizable=0;points=[];" vertex="1" connectable="0" parent="hlvBznPP3QciB6lrWHOo-35">
          <mxGeometry x="-0.002" relative="1" as="geometry">
            <mxPoint as="offset" />
          </mxGeometry>
        </mxCell>
        <mxCell id="hlvBznPP3QciB6lrWHOo-40" value="" style="edgeStyle=orthogonalEdgeStyle;rounded=0;orthogonalLoop=1;jettySize=auto;html=1;" edge="1" parent="1" source="hlvBznPP3QciB6lrWHOo-32" target="hlvBznPP3QciB6lrWHOo-39">
          <mxGeometry relative="1" as="geometry" />
        </mxCell>
        <mxCell id="hlvBznPP3QciB6lrWHOo-41" value="barang keluar&amp;nbsp;" style="edgeLabel;html=1;align=center;verticalAlign=middle;resizable=0;points=[];" vertex="1" connectable="0" parent="hlvBznPP3QciB6lrWHOo-40">
          <mxGeometry x="-0.3469" y="-3" relative="1" as="geometry">
            <mxPoint x="14" y="-3" as="offset" />
          </mxGeometry>
        </mxCell>
        <mxCell id="hlvBznPP3QciB6lrWHOo-32" value="&lt;font style=&quot;font-size: 10px;&quot;&gt;terdapat menu barang masuk dan barang keliuar&amp;nbsp;&lt;/font&gt;" style="rhombus;whiteSpace=wrap;html=1;" vertex="1" parent="1">
          <mxGeometry x="166.88" y="790" width="128.75" height="120" as="geometry" />
        </mxCell>
        <mxCell id="hlvBznPP3QciB6lrWHOo-47" style="edgeStyle=orthogonalEdgeStyle;rounded=0;orthogonalLoop=1;jettySize=auto;html=1;entryX=0.5;entryY=0;entryDx=0;entryDy=0;" edge="1" parent="1" source="hlvBznPP3QciB6lrWHOo-34" target="hlvBznPP3QciB6lrWHOo-44">
          <mxGeometry relative="1" as="geometry" />
        </mxCell>
        <mxCell id="hlvBznPP3QciB6lrWHOo-34" value="menginput nama barang&amp;nbsp;&lt;div&gt;menginput nama pengirim&amp;nbsp;&lt;/div&gt;&lt;div&gt;menginput jumlah barang masuk&lt;/div&gt;" style="shape=parallelogram;perimeter=parallelogramPerimeter;whiteSpace=wrap;html=1;fixedSize=1;" vertex="1" parent="1">
          <mxGeometry x="-140" y="807.5" width="210" height="85" as="geometry" />
        </mxCell>
        <mxCell id="hlvBznPP3QciB6lrWHOo-43" value="" style="edgeStyle=orthogonalEdgeStyle;rounded=0;orthogonalLoop=1;jettySize=auto;html=1;" edge="1" parent="1" source="hlvBznPP3QciB6lrWHOo-39" target="hlvBznPP3QciB6lrWHOo-42">
          <mxGeometry relative="1" as="geometry" />
        </mxCell>
        <mxCell id="hlvBznPP3QciB6lrWHOo-39" value="menginput nama barang&amp;nbsp;&lt;div&gt;menginput nama pengirim&amp;nbsp;&lt;/div&gt;&lt;div&gt;menginput jumlah barang yang akan dikirim&amp;nbsp;&lt;/div&gt;" style="shape=parallelogram;perimeter=parallelogramPerimeter;whiteSpace=wrap;html=1;fixedSize=1;" vertex="1" parent="1">
          <mxGeometry x="410" y="810" width="260" height="85" as="geometry" />
        </mxCell>
        <mxCell id="hlvBznPP3QciB6lrWHOo-55" style="edgeStyle=orthogonalEdgeStyle;rounded=0;orthogonalLoop=1;jettySize=auto;html=1;entryX=1;entryY=0.5;entryDx=0;entryDy=0;" edge="1" parent="1" source="hlvBznPP3QciB6lrWHOo-42" target="hlvBznPP3QciB6lrWHOo-49">
          <mxGeometry relative="1" as="geometry">
            <Array as="points">
              <mxPoint x="540" y="1279" />
            </Array>
          </mxGeometry>
        </mxCell>
        <mxCell id="hlvBznPP3QciB6lrWHOo-42" value="tekan tombol simpan dan danta akan tersimpan di database" style="whiteSpace=wrap;html=1;" vertex="1" parent="1">
          <mxGeometry x="445" y="998" width="190" height="102.5" as="geometry" />
        </mxCell>
        <mxCell id="hlvBznPP3QciB6lrWHOo-50" value="" style="edgeStyle=orthogonalEdgeStyle;rounded=0;orthogonalLoop=1;jettySize=auto;html=1;" edge="1" parent="1" source="hlvBznPP3QciB6lrWHOo-44" target="hlvBznPP3QciB6lrWHOo-49">
          <mxGeometry relative="1" as="geometry">
            <Array as="points">
              <mxPoint x="-35" y="1280" />
            </Array>
          </mxGeometry>
        </mxCell>
        <mxCell id="hlvBznPP3QciB6lrWHOo-44" value="tekan tombol simpan dan danta akan tersimpan di database" style="whiteSpace=wrap;html=1;" vertex="1" parent="1">
          <mxGeometry x="-130" y="998" width="190" height="102.5" as="geometry" />
        </mxCell>
        <mxCell id="hlvBznPP3QciB6lrWHOo-57" value="" style="edgeStyle=orthogonalEdgeStyle;rounded=0;orthogonalLoop=1;jettySize=auto;html=1;" edge="1" parent="1" source="hlvBznPP3QciB6lrWHOo-49" target="hlvBznPP3QciB6lrWHOo-56">
          <mxGeometry relative="1" as="geometry" />
        </mxCell>
        <mxCell id="hlvBznPP3QciB6lrWHOo-49" value="pilih menu&amp;nbsp; barang di navbar untuk melihat perubahan yang terjadi pada barang&amp;nbsp;" style="whiteSpace=wrap;html=1;" vertex="1" parent="1">
          <mxGeometry x="157.18" y="1240" width="185" height="78.25" as="geometry" />
        </mxCell>
        <mxCell id="hlvBznPP3QciB6lrWHOo-60" value="" style="edgeStyle=orthogonalEdgeStyle;rounded=0;orthogonalLoop=1;jettySize=auto;html=1;" edge="1" parent="1" source="hlvBznPP3QciB6lrWHOo-56" target="hlvBznPP3QciB6lrWHOo-59">
          <mxGeometry relative="1" as="geometry" />
        </mxCell>
        <mxCell id="hlvBznPP3QciB6lrWHOo-56" value="pilih menu dashboard yang ada di navbar untuk menambhkan data barang masuk dan barang keluar&amp;nbsp;" style="whiteSpace=wrap;html=1;" vertex="1" parent="1">
          <mxGeometry x="129.52" y="1410" width="240.48" height="100" as="geometry" />
        </mxCell>
        <mxCell id="hlvBznPP3QciB6lrWHOo-62" value="" style="edgeStyle=orthogonalEdgeStyle;rounded=0;orthogonalLoop=1;jettySize=auto;html=1;" edge="1" parent="1" source="hlvBznPP3QciB6lrWHOo-59" target="hlvBznPP3QciB6lrWHOo-61">
          <mxGeometry relative="1" as="geometry" />
        </mxCell>
        <mxCell id="hlvBznPP3QciB6lrWHOo-59" value="logout&amp;nbsp;" style="whiteSpace=wrap;html=1;" vertex="1" parent="1">
          <mxGeometry x="189.76" y="1610" width="120" height="60" as="geometry" />
        </mxCell>
        <mxCell id="hlvBznPP3QciB6lrWHOo-61" value="end" style="ellipse;whiteSpace=wrap;html=1;" vertex="1" parent="1">
          <mxGeometry x="209.76" y="1740" width="80.24" height="60" as="geometry" />
        </mxCell>
        <mxCell id="hlvBznPP3QciB6lrWHOo-97" value="" style="edgeStyle=orthogonalEdgeStyle;rounded=0;orthogonalLoop=1;jettySize=auto;html=1;" edge="1" source="hlvBznPP3QciB6lrWHOo-98" target="hlvBznPP3QciB6lrWHOo-100" parent="1">
          <mxGeometry relative="1" as="geometry" />
        </mxCell>
        <mxCell id="hlvBznPP3QciB6lrWHOo-98" value="start" style="ellipse;whiteSpace=wrap;html=1;" vertex="1" parent="1">
          <mxGeometry x="-1110.93" y="90" width="110" height="60" as="geometry" />
        </mxCell>
        <mxCell id="hlvBznPP3QciB6lrWHOo-99" value="" style="edgeStyle=orthogonalEdgeStyle;rounded=0;orthogonalLoop=1;jettySize=auto;html=1;" edge="1" source="hlvBznPP3QciB6lrWHOo-100" target="hlvBznPP3QciB6lrWHOo-104" parent="1">
          <mxGeometry relative="1" as="geometry" />
        </mxCell>
        <mxCell id="hlvBznPP3QciB6lrWHOo-100" value="Login" style="whiteSpace=wrap;html=1;" vertex="1" parent="1">
          <mxGeometry x="-1115.93" y="220" width="120" height="60" as="geometry" />
        </mxCell>
        <mxCell id="hlvBznPP3QciB6lrWHOo-101" value="" style="edgeStyle=orthogonalEdgeStyle;rounded=0;orthogonalLoop=1;jettySize=auto;html=1;" edge="1" source="hlvBznPP3QciB6lrWHOo-104" target="hlvBznPP3QciB6lrWHOo-106" parent="1">
          <mxGeometry relative="1" as="geometry" />
        </mxCell>
        <mxCell id="hlvBznPP3QciB6lrWHOo-102" value="belum" style="edgeLabel;html=1;align=center;verticalAlign=middle;resizable=0;points=[];" vertex="1" connectable="0" parent="hlvBznPP3QciB6lrWHOo-101">
          <mxGeometry x="-0.5238" y="2" relative="1" as="geometry">
            <mxPoint x="10" y="2" as="offset" />
          </mxGeometry>
        </mxCell>
        <mxCell id="hlvBznPP3QciB6lrWHOo-103" value="sudah" style="edgeStyle=orthogonalEdgeStyle;rounded=0;orthogonalLoop=1;jettySize=auto;html=1;" edge="1" source="hlvBznPP3QciB6lrWHOo-104" parent="1">
          <mxGeometry x="0.0095" relative="1" as="geometry">
            <mxPoint x="-1055.88" y="520" as="targetPoint" />
            <mxPoint as="offset" />
          </mxGeometry>
        </mxCell>
        <mxCell id="hlvBznPP3QciB6lrWHOo-104" value="Sudah punya akun?" style="rhombus;whiteSpace=wrap;html=1;" vertex="1" parent="1">
          <mxGeometry x="-1107.18" y="330" width="102.5" height="90" as="geometry" />
        </mxCell>
        <mxCell id="hlvBznPP3QciB6lrWHOo-196" style="edgeStyle=orthogonalEdgeStyle;rounded=0;orthogonalLoop=1;jettySize=auto;html=1;entryX=0.5;entryY=1;entryDx=0;entryDy=0;" edge="1" parent="1" source="hlvBznPP3QciB6lrWHOo-106" target="hlvBznPP3QciB6lrWHOo-112">
          <mxGeometry relative="1" as="geometry" />
        </mxCell>
        <mxCell id="hlvBznPP3QciB6lrWHOo-106" value="Register akun" style="whiteSpace=wrap;html=1;" vertex="1" parent="1">
          <mxGeometry x="-930" y="345" width="120" height="60" as="geometry" />
        </mxCell>
        <mxCell id="hlvBznPP3QciB6lrWHOo-108" style="edgeStyle=orthogonalEdgeStyle;rounded=0;orthogonalLoop=1;jettySize=auto;html=1;" edge="1" source="hlvBznPP3QciB6lrWHOo-109" parent="1">
          <mxGeometry relative="1" as="geometry">
            <mxPoint x="-987.1800000000001" y="250" as="targetPoint" />
          </mxGeometry>
        </mxCell>
        <mxCell id="hlvBznPP3QciB6lrWHOo-109" value="submit dan akan terarahkan kembali ke form login" style="whiteSpace=wrap;html=1;" vertex="1" parent="1">
          <mxGeometry x="-930" y="220" width="120" height="60" as="geometry" />
        </mxCell>
        <mxCell id="hlvBznPP3QciB6lrWHOo-110" value="" style="edgeStyle=orthogonalEdgeStyle;rounded=0;orthogonalLoop=1;jettySize=auto;html=1;entryX=0.5;entryY=0;entryDx=0;entryDy=0;" edge="1" parent="1" target="hlvBznPP3QciB6lrWHOo-114">
          <mxGeometry relative="1" as="geometry">
            <mxPoint x="-1055.93" y="580" as="sourcePoint" />
            <mxPoint x="-1056.18" y="650" as="targetPoint" />
          </mxGeometry>
        </mxCell>
        <mxCell id="hlvBznPP3QciB6lrWHOo-111" value="input username dan password&amp;nbsp;" style="shape=parallelogram;perimeter=parallelogramPerimeter;whiteSpace=wrap;html=1;fixedSize=1;" vertex="1" parent="1">
          <mxGeometry x="-1130" y="520" width="148.13" height="80" as="geometry" />
        </mxCell>
        <mxCell id="hlvBznPP3QciB6lrWHOo-218" style="edgeStyle=orthogonalEdgeStyle;rounded=0;orthogonalLoop=1;jettySize=auto;html=1;entryX=1;entryY=0.5;entryDx=0;entryDy=0;" edge="1" parent="1" source="hlvBznPP3QciB6lrWHOo-112" target="hlvBznPP3QciB6lrWHOo-109">
          <mxGeometry relative="1" as="geometry">
            <Array as="points">
              <mxPoint x="-705" y="250" />
            </Array>
          </mxGeometry>
        </mxCell>
        <mxCell id="hlvBznPP3QciB6lrWHOo-112" value="input email&lt;div&gt;username&lt;/div&gt;&lt;div&gt;password&amp;nbsp;&lt;br&gt;first name dan lastname&amp;nbsp;&lt;/div&gt;" style="shape=parallelogram;perimeter=parallelogramPerimeter;whiteSpace=wrap;html=1;fixedSize=1;" vertex="1" parent="1">
          <mxGeometry x="-789.9999999999999" y="285" width="170" height="60" as="geometry" />
        </mxCell>
        <mxCell id="hlvBznPP3QciB6lrWHOo-116" value="" style="edgeStyle=orthogonalEdgeStyle;rounded=0;orthogonalLoop=1;jettySize=auto;html=1;" edge="1" parent="1" source="hlvBznPP3QciB6lrWHOo-114" target="hlvBznPP3QciB6lrWHOo-115">
          <mxGeometry relative="1" as="geometry" />
        </mxCell>
        <mxCell id="hlvBznPP3QciB6lrWHOo-114" value="masuk ke tampilan utama aplikasi&amp;nbsp;" style="whiteSpace=wrap;html=1;" vertex="1" parent="1">
          <mxGeometry x="-1115.93" y="660" width="120" height="60" as="geometry" />
        </mxCell>
        <mxCell id="hlvBznPP3QciB6lrWHOo-118" value="" style="edgeStyle=orthogonalEdgeStyle;rounded=0;orthogonalLoop=1;jettySize=auto;html=1;" edge="1" parent="1" source="hlvBznPP3QciB6lrWHOo-115" target="hlvBznPP3QciB6lrWHOo-117">
          <mxGeometry relative="1" as="geometry" />
        </mxCell>
        <mxCell id="hlvBznPP3QciB6lrWHOo-115" value="pilih menu barang yang ada&amp;nbsp; di navbar&amp;nbsp;" style="whiteSpace=wrap;html=1;" vertex="1" parent="1">
          <mxGeometry x="-1115.93" y="800" width="120" height="60" as="geometry" />
        </mxCell>
        <mxCell id="hlvBznPP3QciB6lrWHOo-121" value="" style="edgeStyle=orthogonalEdgeStyle;rounded=0;orthogonalLoop=1;jettySize=auto;html=1;" edge="1" parent="1" source="hlvBznPP3QciB6lrWHOo-117" target="hlvBznPP3QciB6lrWHOo-120">
          <mxGeometry relative="1" as="geometry" />
        </mxCell>
        <mxCell id="hlvBznPP3QciB6lrWHOo-123" value="" style="edgeStyle=orthogonalEdgeStyle;rounded=0;orthogonalLoop=1;jettySize=auto;html=1;" edge="1" parent="1" source="hlvBznPP3QciB6lrWHOo-117" target="hlvBznPP3QciB6lrWHOo-122">
          <mxGeometry relative="1" as="geometry" />
        </mxCell>
        <mxCell id="hlvBznPP3QciB6lrWHOo-140" value="" style="edgeStyle=orthogonalEdgeStyle;rounded=0;orthogonalLoop=1;jettySize=auto;html=1;" edge="1" parent="1" source="hlvBznPP3QciB6lrWHOo-117" target="hlvBznPP3QciB6lrWHOo-139">
          <mxGeometry relative="1" as="geometry" />
        </mxCell>
        <mxCell id="hlvBznPP3QciB6lrWHOo-117" value="&lt;font style=&quot;font-size: 11px;&quot;&gt;terdapat 3 opsi yang dapat di;lakukan terhadap data barang&lt;/font&gt;" style="rhombus;whiteSpace=wrap;html=1;" vertex="1" parent="1">
          <mxGeometry x="-1146.86" y="940" width="181.86" height="140" as="geometry" />
        </mxCell>
        <mxCell id="hlvBznPP3QciB6lrWHOo-127" value="" style="edgeStyle=orthogonalEdgeStyle;rounded=0;orthogonalLoop=1;jettySize=auto;html=1;" edge="1" parent="1" source="hlvBznPP3QciB6lrWHOo-120" target="hlvBznPP3QciB6lrWHOo-126">
          <mxGeometry relative="1" as="geometry" />
        </mxCell>
        <mxCell id="hlvBznPP3QciB6lrWHOo-120" value="add barang atau tambah barang&amp;nbsp;" style="whiteSpace=wrap;html=1;" vertex="1" parent="1">
          <mxGeometry x="-1377.79" y="980" width="120" height="60" as="geometry" />
        </mxCell>
        <mxCell id="hlvBznPP3QciB6lrWHOo-137" value="" style="edgeStyle=orthogonalEdgeStyle;rounded=0;orthogonalLoop=1;jettySize=auto;html=1;" edge="1" parent="1" source="hlvBznPP3QciB6lrWHOo-122" target="hlvBznPP3QciB6lrWHOo-133">
          <mxGeometry relative="1" as="geometry" />
        </mxCell>
        <mxCell id="hlvBznPP3QciB6lrWHOo-122" value="opsi edit" style="whiteSpace=wrap;html=1;" vertex="1" parent="1">
          <mxGeometry x="-854.0699999999999" y="980" width="120" height="60" as="geometry" />
        </mxCell>
        <mxCell id="hlvBznPP3QciB6lrWHOo-129" value="" style="edgeStyle=orthogonalEdgeStyle;rounded=0;orthogonalLoop=1;jettySize=auto;html=1;" edge="1" parent="1" source="hlvBznPP3QciB6lrWHOo-126" target="hlvBznPP3QciB6lrWHOo-128">
          <mxGeometry relative="1" as="geometry" />
        </mxCell>
        <mxCell id="hlvBznPP3QciB6lrWHOo-126" value="inputkan nama barang&lt;div&gt;jumlah berat&lt;br&gt;&lt;div&gt;kategori&lt;/div&gt;&lt;div&gt;dan satuan berat&lt;/div&gt;&lt;/div&gt;" style="shape=parallelogram;perimeter=parallelogramPerimeter;whiteSpace=wrap;html=1;fixedSize=1;" vertex="1" parent="1">
          <mxGeometry x="-1396.69" y="1120" width="157.79" height="80" as="geometry" />
        </mxCell>
        <mxCell id="hlvBznPP3QciB6lrWHOo-132" style="edgeStyle=orthogonalEdgeStyle;rounded=0;orthogonalLoop=1;jettySize=auto;html=1;exitX=0.5;exitY=1;exitDx=0;exitDy=0;entryX=0;entryY=0.5;entryDx=0;entryDy=0;" edge="1" parent="1" source="hlvBznPP3QciB6lrWHOo-128" target="hlvBznPP3QciB6lrWHOo-131">
          <mxGeometry relative="1" as="geometry" />
        </mxCell>
        <mxCell id="hlvBznPP3QciB6lrWHOo-128" value="klik simpan dan data yang anda input tadi sudah tersimpan di database dan tampil di menu barang&amp;nbsp;" style="whiteSpace=wrap;html=1;" vertex="1" parent="1">
          <mxGeometry x="-1406.69" y="1270" width="177.79" height="80" as="geometry" />
        </mxCell>
        <mxCell id="hlvBznPP3QciB6lrWHOo-154" style="edgeStyle=orthogonalEdgeStyle;rounded=0;orthogonalLoop=1;jettySize=auto;html=1;entryX=0.5;entryY=0;entryDx=0;entryDy=0;" edge="1" parent="1" source="hlvBznPP3QciB6lrWHOo-131" target="hlvBznPP3QciB6lrWHOo-153">
          <mxGeometry relative="1" as="geometry" />
        </mxCell>
        <mxCell id="hlvBznPP3QciB6lrWHOo-131" value="arahkan kursor ke icon user untuk memilih menu logout&amp;nbsp;" style="rounded=0;whiteSpace=wrap;html=1;" vertex="1" parent="1">
          <mxGeometry x="-1120.0000000000002" y="1540" width="125.93" height="60" as="geometry" />
        </mxCell>
        <mxCell id="hlvBznPP3QciB6lrWHOo-146" style="edgeStyle=orthogonalEdgeStyle;rounded=0;orthogonalLoop=1;jettySize=auto;html=1;entryX=0.5;entryY=0;entryDx=0;entryDy=0;" edge="1" parent="1" source="hlvBznPP3QciB6lrWHOo-133" target="hlvBznPP3QciB6lrWHOo-134">
          <mxGeometry relative="1" as="geometry" />
        </mxCell>
        <mxCell id="hlvBznPP3QciB6lrWHOo-133" value="inputkan nama barang&lt;div&gt;jumlah berat&lt;br&gt;&lt;div&gt;kategori&lt;/div&gt;&lt;div&gt;dan satuan berat&lt;/div&gt;&lt;/div&gt;" style="shape=parallelogram;perimeter=parallelogramPerimeter;whiteSpace=wrap;html=1;fixedSize=1;" vertex="1" parent="1">
          <mxGeometry x="-872.97" y="1120" width="157.79" height="80" as="geometry" />
        </mxCell>
        <mxCell id="hlvBznPP3QciB6lrWHOo-147" style="edgeStyle=orthogonalEdgeStyle;rounded=0;orthogonalLoop=1;jettySize=auto;html=1;entryX=1;entryY=0.5;entryDx=0;entryDy=0;" edge="1" parent="1" source="hlvBznPP3QciB6lrWHOo-134" target="hlvBznPP3QciB6lrWHOo-131">
          <mxGeometry relative="1" as="geometry">
            <Array as="points">
              <mxPoint x="-794" y="1570" />
            </Array>
          </mxGeometry>
        </mxCell>
        <mxCell id="hlvBznPP3QciB6lrWHOo-134" value="klik simpan dan data yang anda edit tadi sudah tersimpan di database dan tampil di menu barang&amp;nbsp;" style="whiteSpace=wrap;html=1;" vertex="1" parent="1">
          <mxGeometry x="-882.97" y="1270" width="177.79" height="70" as="geometry" />
        </mxCell>
        <mxCell id="hlvBznPP3QciB6lrWHOo-142" value="" style="edgeStyle=orthogonalEdgeStyle;rounded=0;orthogonalLoop=1;jettySize=auto;html=1;" edge="1" parent="1" source="hlvBznPP3QciB6lrWHOo-139" target="hlvBznPP3QciB6lrWHOo-141">
          <mxGeometry relative="1" as="geometry" />
        </mxCell>
        <mxCell id="hlvBznPP3QciB6lrWHOo-139" value="opsi hapus" style="whiteSpace=wrap;html=1;" vertex="1" parent="1">
          <mxGeometry x="-1115.9399999999998" y="1150" width="120" height="60" as="geometry" />
        </mxCell>
        <mxCell id="hlvBznPP3QciB6lrWHOo-150" style="edgeStyle=orthogonalEdgeStyle;rounded=0;orthogonalLoop=1;jettySize=auto;html=1;entryX=0.5;entryY=0;entryDx=0;entryDy=0;" edge="1" parent="1" source="hlvBznPP3QciB6lrWHOo-141" target="hlvBznPP3QciB6lrWHOo-131">
          <mxGeometry relative="1" as="geometry" />
        </mxCell>
        <mxCell id="hlvBznPP3QciB6lrWHOo-141" value="muncul modal untuk mengkonfirmasi penghapusan data. tekan ya untuk menghapus data" style="whiteSpace=wrap;html=1;" vertex="1" parent="1">
          <mxGeometry x="-1130" y="1310" width="145.93" height="80" as="geometry" />
        </mxCell>
        <mxCell id="hlvBznPP3QciB6lrWHOo-153" value="end" style="ellipse;whiteSpace=wrap;html=1;" vertex="1" parent="1">
          <mxGeometry x="-1112.04" y="1690" width="110" height="60" as="geometry" />
        </mxCell>
        <mxCell id="hlvBznPP3QciB6lrWHOo-155" value="" style="edgeStyle=orthogonalEdgeStyle;rounded=0;orthogonalLoop=1;jettySize=auto;html=1;" edge="1" source="hlvBznPP3QciB6lrWHOo-156" target="hlvBznPP3QciB6lrWHOo-158" parent="1">
          <mxGeometry relative="1" as="geometry" />
        </mxCell>
        <mxCell id="hlvBznPP3QciB6lrWHOo-156" value="start" style="ellipse;whiteSpace=wrap;html=1;" vertex="1" parent="1">
          <mxGeometry x="1349.0700000000002" y="120" width="110" height="60" as="geometry" />
        </mxCell>
        <mxCell id="hlvBznPP3QciB6lrWHOo-157" value="" style="edgeStyle=orthogonalEdgeStyle;rounded=0;orthogonalLoop=1;jettySize=auto;html=1;" edge="1" source="hlvBznPP3QciB6lrWHOo-158" target="hlvBznPP3QciB6lrWHOo-162" parent="1">
          <mxGeometry relative="1" as="geometry" />
        </mxCell>
        <mxCell id="hlvBznPP3QciB6lrWHOo-158" value="Login" style="whiteSpace=wrap;html=1;" vertex="1" parent="1">
          <mxGeometry x="1344.0700000000002" y="250" width="120" height="60" as="geometry" />
        </mxCell>
        <mxCell id="hlvBznPP3QciB6lrWHOo-159" value="" style="edgeStyle=orthogonalEdgeStyle;rounded=0;orthogonalLoop=1;jettySize=auto;html=1;" edge="1" source="hlvBznPP3QciB6lrWHOo-162" target="hlvBznPP3QciB6lrWHOo-164" parent="1">
          <mxGeometry relative="1" as="geometry" />
        </mxCell>
        <mxCell id="hlvBznPP3QciB6lrWHOo-160" value="belum" style="edgeLabel;html=1;align=center;verticalAlign=middle;resizable=0;points=[];" vertex="1" connectable="0" parent="hlvBznPP3QciB6lrWHOo-159">
          <mxGeometry x="-0.5238" y="2" relative="1" as="geometry">
            <mxPoint x="10" y="2" as="offset" />
          </mxGeometry>
        </mxCell>
        <mxCell id="hlvBznPP3QciB6lrWHOo-161" value="sudah" style="edgeStyle=orthogonalEdgeStyle;rounded=0;orthogonalLoop=1;jettySize=auto;html=1;" edge="1" source="hlvBznPP3QciB6lrWHOo-162" parent="1">
          <mxGeometry x="0.0095" relative="1" as="geometry">
            <mxPoint x="1404.12" y="550" as="targetPoint" />
            <mxPoint as="offset" />
          </mxGeometry>
        </mxCell>
        <mxCell id="hlvBznPP3QciB6lrWHOo-162" value="Sudah punya akun?" style="rhombus;whiteSpace=wrap;html=1;" vertex="1" parent="1">
          <mxGeometry x="1352.8200000000002" y="360" width="102.5" height="90" as="geometry" />
        </mxCell>
        <mxCell id="hlvBznPP3QciB6lrWHOo-174" value="" style="edgeStyle=orthogonalEdgeStyle;rounded=0;orthogonalLoop=1;jettySize=auto;html=1;" edge="1" parent="1" source="hlvBznPP3QciB6lrWHOo-164" target="hlvBznPP3QciB6lrWHOo-171">
          <mxGeometry relative="1" as="geometry" />
        </mxCell>
        <mxCell id="hlvBznPP3QciB6lrWHOo-164" value="Register akun" style="whiteSpace=wrap;html=1;" vertex="1" parent="1">
          <mxGeometry x="1532.8200000000002" y="375" width="120" height="60" as="geometry" />
        </mxCell>
        <mxCell id="hlvBznPP3QciB6lrWHOo-165" value="" style="edgeStyle=orthogonalEdgeStyle;rounded=0;orthogonalLoop=1;jettySize=auto;html=1;exitX=0.5;exitY=0;exitDx=0;exitDy=0;" edge="1" target="hlvBznPP3QciB6lrWHOo-167" parent="1" source="hlvBznPP3QciB6lrWHOo-171">
          <mxGeometry relative="1" as="geometry">
            <mxPoint x="1762.8200000000002" y="375" as="sourcePoint" />
            <Array as="points">
              <mxPoint x="1763" y="310" />
              <mxPoint x="1763" y="280" />
            </Array>
          </mxGeometry>
        </mxCell>
        <mxCell id="hlvBznPP3QciB6lrWHOo-166" style="edgeStyle=orthogonalEdgeStyle;rounded=0;orthogonalLoop=1;jettySize=auto;html=1;entryX=1;entryY=0.5;entryDx=0;entryDy=0;" edge="1" source="hlvBznPP3QciB6lrWHOo-167" parent="1" target="hlvBznPP3QciB6lrWHOo-158">
          <mxGeometry relative="1" as="geometry">
            <mxPoint x="1472.8200000000002" y="280" as="targetPoint" />
          </mxGeometry>
        </mxCell>
        <mxCell id="hlvBznPP3QciB6lrWHOo-167" value="submit dan akan terarahkan kembali ke form login" style="whiteSpace=wrap;html=1;" vertex="1" parent="1">
          <mxGeometry x="1540.0000000000002" y="250" width="120" height="60" as="geometry" />
        </mxCell>
        <mxCell id="hlvBznPP3QciB6lrWHOo-168" value="" style="edgeStyle=orthogonalEdgeStyle;rounded=0;orthogonalLoop=1;jettySize=auto;html=1;" edge="1" target="hlvBznPP3QciB6lrWHOo-169" parent="1">
          <mxGeometry relative="1" as="geometry">
            <mxPoint x="1404.0700000000002" y="610" as="sourcePoint" />
          </mxGeometry>
        </mxCell>
        <mxCell id="hlvBznPP3QciB6lrWHOo-223" value="" style="edgeStyle=orthogonalEdgeStyle;rounded=0;orthogonalLoop=1;jettySize=auto;html=1;" edge="1" parent="1" source="hlvBznPP3QciB6lrWHOo-169" target="hlvBznPP3QciB6lrWHOo-222">
          <mxGeometry relative="1" as="geometry" />
        </mxCell>
        <mxCell id="hlvBznPP3QciB6lrWHOo-169" value="masuk ke tampilan utama aplikasi&amp;nbsp;" style="whiteSpace=wrap;html=1;" vertex="1" parent="1">
          <mxGeometry x="1344.0700000000002" y="680" width="120" height="60" as="geometry" />
        </mxCell>
        <mxCell id="hlvBznPP3QciB6lrWHOo-170" value="input username dan password&amp;nbsp;" style="shape=parallelogram;perimeter=parallelogramPerimeter;whiteSpace=wrap;html=1;fixedSize=1;" vertex="1" parent="1">
          <mxGeometry x="1330" y="550" width="148.13" height="80" as="geometry" />
        </mxCell>
        <mxCell id="hlvBznPP3QciB6lrWHOo-171" value="input email&lt;div&gt;username&lt;/div&gt;&lt;div&gt;password&amp;nbsp;&lt;br&gt;first name dan lastname&amp;nbsp;&lt;/div&gt;" style="shape=parallelogram;perimeter=parallelogramPerimeter;whiteSpace=wrap;html=1;fixedSize=1;" vertex="1" parent="1">
          <mxGeometry x="1680.0000000000002" y="310" width="170" height="60" as="geometry" />
        </mxCell>
        <mxCell id="hlvBznPP3QciB6lrWHOo-220" style="edgeStyle=orthogonalEdgeStyle;rounded=0;orthogonalLoop=1;jettySize=auto;html=1;entryX=1;entryY=0.5;entryDx=0;entryDy=0;" edge="1" parent="1">
          <mxGeometry relative="1" as="geometry">
            <mxPoint x="-705" y="285" as="sourcePoint" />
            <mxPoint x="-810" y="250" as="targetPoint" />
            <Array as="points">
              <mxPoint x="-705" y="250" />
            </Array>
          </mxGeometry>
        </mxCell>
        <mxCell id="hlvBznPP3QciB6lrWHOo-225" value="" style="edgeStyle=orthogonalEdgeStyle;rounded=0;orthogonalLoop=1;jettySize=auto;html=1;" edge="1" parent="1" source="hlvBznPP3QciB6lrWHOo-222" target="hlvBznPP3QciB6lrWHOo-224">
          <mxGeometry relative="1" as="geometry" />
        </mxCell>
        <mxCell id="hlvBznPP3QciB6lrWHOo-222" value="pilih menu pengirim yang ada di navbar" style="whiteSpace=wrap;html=1;" vertex="1" parent="1">
          <mxGeometry x="1344.0600000000002" y="790" width="120" height="60" as="geometry" />
        </mxCell>
        <mxCell id="hlvBznPP3QciB6lrWHOo-228" value="" style="edgeStyle=orthogonalEdgeStyle;rounded=0;orthogonalLoop=1;jettySize=auto;html=1;" edge="1" parent="1" source="hlvBznPP3QciB6lrWHOo-224" target="hlvBznPP3QciB6lrWHOo-227">
          <mxGeometry relative="1" as="geometry" />
        </mxCell>
        <mxCell id="hlvBznPP3QciB6lrWHOo-232" value="" style="edgeStyle=orthogonalEdgeStyle;rounded=0;orthogonalLoop=1;jettySize=auto;html=1;" edge="1" parent="1" source="hlvBznPP3QciB6lrWHOo-224" target="hlvBznPP3QciB6lrWHOo-231">
          <mxGeometry relative="1" as="geometry" />
        </mxCell>
        <mxCell id="hlvBznPP3QciB6lrWHOo-246" value="" style="edgeStyle=orthogonalEdgeStyle;rounded=0;orthogonalLoop=1;jettySize=auto;html=1;" edge="1" parent="1" source="hlvBznPP3QciB6lrWHOo-224" target="hlvBznPP3QciB6lrWHOo-244">
          <mxGeometry relative="1" as="geometry" />
        </mxCell>
        <mxCell id="hlvBznPP3QciB6lrWHOo-224" value="&lt;font style=&quot;font-size: 9px;&quot;&gt;terdapat 3 opsi yang dapat dilakukan terhadap data pengirim&lt;/font&gt;" style="rhombus;whiteSpace=wrap;html=1;" vertex="1" parent="1">
          <mxGeometry x="1313.1299999999999" y="940" width="181.86" height="140" as="geometry" />
        </mxCell>
        <mxCell id="hlvBznPP3QciB6lrWHOo-230" value="" style="edgeStyle=orthogonalEdgeStyle;rounded=0;orthogonalLoop=1;jettySize=auto;html=1;" edge="1" parent="1" source="hlvBznPP3QciB6lrWHOo-227" target="hlvBznPP3QciB6lrWHOo-229">
          <mxGeometry relative="1" as="geometry" />
        </mxCell>
        <mxCell id="hlvBznPP3QciB6lrWHOo-227" value="opsi pengiriman" style="whiteSpace=wrap;html=1;" vertex="1" parent="1">
          <mxGeometry x="1082.1999999999998" y="980" width="120" height="60" as="geometry" />
        </mxCell>
        <mxCell id="hlvBznPP3QciB6lrWHOo-248" style="edgeStyle=orthogonalEdgeStyle;rounded=0;orthogonalLoop=1;jettySize=auto;html=1;entryX=0;entryY=0.5;entryDx=0;entryDy=0;" edge="1" parent="1" source="hlvBznPP3QciB6lrWHOo-229" target="hlvBznPP3QciB6lrWHOo-247">
          <mxGeometry relative="1" as="geometry">
            <Array as="points">
              <mxPoint x="1142" y="1530" />
            </Array>
          </mxGeometry>
        </mxCell>
        <mxCell id="hlvBznPP3QciB6lrWHOo-229" value="menampilkan daftar riwayat pengiriman yang dilakukan oleh shipper&amp;nbsp;" style="whiteSpace=wrap;html=1;" vertex="1" parent="1">
          <mxGeometry x="1043.3" y="1125" width="197.8" height="70" as="geometry" />
        </mxCell>
        <mxCell id="hlvBznPP3QciB6lrWHOo-236" value="" style="edgeStyle=orthogonalEdgeStyle;rounded=0;orthogonalLoop=1;jettySize=auto;html=1;" edge="1" parent="1" source="hlvBznPP3QciB6lrWHOo-231" target="hlvBznPP3QciB6lrWHOo-235">
          <mxGeometry relative="1" as="geometry" />
        </mxCell>
        <mxCell id="hlvBznPP3QciB6lrWHOo-231" value="opsi edit" style="whiteSpace=wrap;html=1;" vertex="1" parent="1">
          <mxGeometry x="1605.9199999999998" y="980" width="120" height="60" as="geometry" />
        </mxCell>
        <mxCell id="hlvBznPP3QciB6lrWHOo-242" value="" style="edgeStyle=orthogonalEdgeStyle;rounded=0;orthogonalLoop=1;jettySize=auto;html=1;" edge="1" parent="1" source="hlvBznPP3QciB6lrWHOo-235" target="hlvBznPP3QciB6lrWHOo-240">
          <mxGeometry relative="1" as="geometry" />
        </mxCell>
        <mxCell id="hlvBznPP3QciB6lrWHOo-235" value="inputkan nama dan id pengirim yang baru&amp;nbsp;" style="shape=parallelogram;perimeter=parallelogramPerimeter;whiteSpace=wrap;html=1;fixedSize=1;" vertex="1" parent="1">
          <mxGeometry x="1589.39" y="1130" width="153.06" height="70" as="geometry" />
        </mxCell>
        <mxCell id="hlvBznPP3QciB6lrWHOo-250" style="edgeStyle=orthogonalEdgeStyle;rounded=0;orthogonalLoop=1;jettySize=auto;html=1;entryX=1;entryY=0.5;entryDx=0;entryDy=0;" edge="1" parent="1" source="hlvBznPP3QciB6lrWHOo-240" target="hlvBznPP3QciB6lrWHOo-247">
          <mxGeometry relative="1" as="geometry">
            <Array as="points">
              <mxPoint x="1666" y="1530" />
            </Array>
          </mxGeometry>
        </mxCell>
        <mxCell id="hlvBznPP3QciB6lrWHOo-240" value="klik simpan dan data yang anda edit tadi sudah tersimpan di database dan tampil di menu barang&amp;nbsp;" style="whiteSpace=wrap;html=1;" vertex="1" parent="1">
          <mxGeometry x="1577.02" y="1275" width="177.79" height="70" as="geometry" />
        </mxCell>
        <mxCell id="hlvBznPP3QciB6lrWHOo-243" value="" style="edgeStyle=orthogonalEdgeStyle;rounded=0;orthogonalLoop=1;jettySize=auto;html=1;" edge="1" source="hlvBznPP3QciB6lrWHOo-244" target="hlvBznPP3QciB6lrWHOo-245" parent="1">
          <mxGeometry relative="1" as="geometry" />
        </mxCell>
        <mxCell id="hlvBznPP3QciB6lrWHOo-244" value="opsi hapus" style="whiteSpace=wrap;html=1;" vertex="1" parent="1">
          <mxGeometry x="1344.0700000000004" y="1135" width="120" height="60" as="geometry" />
        </mxCell>
        <mxCell id="hlvBznPP3QciB6lrWHOo-249" style="edgeStyle=orthogonalEdgeStyle;rounded=0;orthogonalLoop=1;jettySize=auto;html=1;exitX=0.5;exitY=1;exitDx=0;exitDy=0;entryX=0.5;entryY=0;entryDx=0;entryDy=0;" edge="1" parent="1" source="hlvBznPP3QciB6lrWHOo-245" target="hlvBznPP3QciB6lrWHOo-247">
          <mxGeometry relative="1" as="geometry" />
        </mxCell>
        <mxCell id="hlvBznPP3QciB6lrWHOo-245" value="muncul modal untuk mengkonfirmasi penghapusan data. tekan ya untuk menghapus data" style="whiteSpace=wrap;html=1;" vertex="1" parent="1">
          <mxGeometry x="1331.0900000000001" y="1285" width="145.93" height="80" as="geometry" />
        </mxCell>
        <mxCell id="hlvBznPP3QciB6lrWHOo-252" value="" style="edgeStyle=orthogonalEdgeStyle;rounded=0;orthogonalLoop=1;jettySize=auto;html=1;" edge="1" parent="1" source="hlvBznPP3QciB6lrWHOo-247" target="hlvBznPP3QciB6lrWHOo-251">
          <mxGeometry relative="1" as="geometry" />
        </mxCell>
        <mxCell id="hlvBznPP3QciB6lrWHOo-247" value="arahkan kursor ke icon user untuk memilih menu logout&amp;nbsp;" style="rounded=0;whiteSpace=wrap;html=1;" vertex="1" parent="1">
          <mxGeometry x="1331.08" y="1490" width="145.94" height="80" as="geometry" />
        </mxCell>
        <mxCell id="hlvBznPP3QciB6lrWHOo-251" value="end" style="ellipse;whiteSpace=wrap;html=1;rounded=0;" vertex="1" parent="1">
          <mxGeometry x="1346.07" y="1660" width="115.95" height="70" as="geometry" />
        </mxCell>
      </root>
    </mxGraphModel>
  </diagram>
</mxfile>
